<?xml version="1.0" encoding="UTF-8"?>
<svg width="128px" height="128px" viewBox="0 0 128 128" version="1.1" xmlns="http://www.w3.org/2000/svg" xmlns:xlink="http://www.w3.org/1999/xlink">
    <!-- Generator: Sketch 64 (93537) - https://sketch.com -->
    <title>编组</title>
    <desc>Created with Sketch.</desc>
    <defs>
        <polygon id="path-1" points="0.112184492 0.0871724138 24.81071 0.0871724138 24.81071 28.1792 0.112184492 28.1792"></polygon>
        <polygon id="path-3" points="0.11977931 0.0774068966 26.8971034 0.0774068966 26.8971034 27.2752 0.11977931 27.2752"></polygon>
        <polygon id="path-5" points="0 0.352937931 17.0431342 0.352937931 17.0431342 15.7559724 0 15.7559724"></polygon>
    </defs>
    <g id="页面-1" stroke="none" stroke-width="1" fill="none" fill-rule="evenodd">
        <g id="编组" transform="translate(0.000000, 33.000000)">
            <path d="M48.0425931,9.11227586 C47.7281103,10.6184828 47.0081103,11.7533793 45.8412138,12.5815172 C44.6836966,13.4035862 42.8905931,13.8206897 40.5132138,13.8206897 L33.4141793,13.8206897 L35.3259034,4.67255172 L42.4343172,4.67255172 C44.114869,4.67255172 45.2608,4.7497931 45.8401103,4.90206897 C46.7234207,5.14482759 47.3518345,5.62813793 47.7617655,6.38013793 C48.1700414,7.12882759 48.2649379,8.048 48.0425931,9.11227586 M50.4354207,2.64496552 C49.5951448,2.01268966 48.4723862,1.57903448 47.0980414,1.35613793 C46.1259034,1.184 44.6754207,1.09682759 42.7841103,1.09682759 L31.8820414,1.09682759 L26.2031448,28.2758621 L30.3940414,28.2758621 L32.6676966,17.3958621 L39.7954207,17.3958621 C43.8505931,17.3958621 46.8696276,16.5842759 48.7686621,14.9831724 C50.6654897,13.3831724 51.8721103,11.3997241 52.354869,9.08855172 C52.6384552,7.73462069 52.6031448,6.47062069 52.2494897,5.33296552 C51.8936276,4.18868966 51.2834207,3.28441379 50.4354207,2.64496552" id="Fill-1" fill="#003856"></path>
            <path d="M76.237131,4.67961379 L76.9841655,1.10444138 L60.045131,1.10444138 C59.9954759,1.10444138 59.9463724,1.10168276 59.897269,1.09947586 L56.1317517,1.09947586 L50.4440276,28.2845793 L54.3546483,28.2845793 C54.3579586,28.2845793 54.3618207,28.2829241 54.3645793,28.2829241 L71.305269,28.2829241 L72.0523034,24.7077517 L55.389131,24.7077517 L57.2032,16.0158897 L73.8685793,16.0158897 L74.6117517,12.4589241 L57.9469241,12.4589241 L59.5783724,4.67961379 L76.237131,4.67961379 Z" id="Fill-3" fill="#003856"></path>
            <polygon id="Fill-5" fill="#003856" points="116.154648 34.5268966 112.173407 53.5806897 102.603752 34.5268966 99.7993379 34.5268966 94.1204414 61.705931 98.1563034 61.705931 102.064166 43.0057931 111.445683 61.705931 114.511062 61.705931 120.19051 34.5268966"></polygon>
            <g transform="translate(2.206897, 0.464552)">
                <mask id="mask-2" fill="white">
                    <use xlink:href="#path-1"></use>
                </mask>
                <g id="Clip-8"></g>
                <path d="M4.3734069,27.1022345 C5.98609655,27.8167172 8.1174069,28.1792 10.7088552,28.1792 C12.7574069,28.1792 14.7016828,27.821131 16.4881655,27.1149241 C18.2801655,26.4059586 19.7698207,25.3985103 20.9163034,24.121269 C22.0660966,22.8390621 22.8032,21.4525793 23.1066483,19.9987862 C23.4150621,18.5229241 23.2782345,17.1960276 22.6994759,16.0561655 L22.7000276,16.0561655 C22.1218207,14.9179586 21.0459586,13.9673379 19.5038897,13.2318897 C18.4423724,12.7342345 16.4848552,12.1709241 13.5198897,11.5105103 C10.6514759,10.8721655 8.91078621,10.249269 8.34471724,9.65892414 C7.78582069,9.08844138 7.60375172,8.37395862 7.79133793,7.47630345 C8.01313103,6.41478621 8.6889931,5.52926897 9.85644138,4.76954483 C11.021131,4.01092414 12.7403034,3.62637241 14.9665103,3.62637241 C17.0884414,3.62637241 18.6183724,4.04347586 19.5127172,4.86664828 C20.3425103,5.63078621 20.7088552,6.7209931 20.6327172,8.19851034 L20.6216828,8.41809655 L24.6752,8.41809655 L24.7027862,8.24209655 C24.9521655,6.66637241 24.7689931,5.23354483 24.157131,3.98278621 C23.5303724,2.70168276 22.4434759,1.71906207 20.9256828,1.06251034 C19.4288552,0.415337931 17.5910621,0.087062069 15.4636138,0.087062069 C13.5342345,0.087062069 11.6898207,0.398234483 9.98057931,1.01230345 C8.26306207,1.63023448 6.84568276,2.54885517 5.76706207,3.74333793 C4.68678621,4.94057931 3.99271724,6.24761379 3.70416552,7.62802759 C3.43878621,8.8969931 3.54582069,10.0616828 4.02195862,11.0900966 C4.49809655,12.1185103 5.37313103,12.9885793 6.6249931,13.6754759 C7.59106207,14.2139586 9.29037241,14.7673379 11.8233379,15.3676138 C14.2906483,15.9524414 15.8939586,16.3888552 16.5896828,16.665269 C17.6401655,17.0713379 18.3574069,17.5739586 18.7182345,18.1582345 C19.0779586,18.7430621 19.1728552,19.4128552 19.0078897,20.2056828 C18.8440276,20.9902345 18.4302345,21.7267862 17.7780966,22.3938207 C17.1209931,23.0669241 16.2067862,23.6054069 15.0608552,23.9943724 C13.9044414,24.3866483 12.6045793,24.585269 11.1982345,24.585269 C9.61754483,24.585269 8.23326897,24.3243034 7.08292414,23.8095448 C5.94857931,23.3019586 5.16623448,22.6338207 4.75575172,21.8244414 C4.37726897,21.0779586 4.21837241,20.0997517 4.28347586,18.9179586 L4.29506207,18.697269 L0.299475862,18.697269 L0.26857931,18.8688552 C-0.0613517241,20.7005793 0.1312,22.3662345 0.84182069,23.8178207 C1.55354483,25.2743724 2.74195862,26.3794759 4.3734069,27.1022345" id="Fill-7" fill="#003856" mask="url(#mask-2)"></path>
            </g>
            <g transform="translate(100.965517, 1.016276)">
                <mask id="mask-4" fill="white">
                    <use xlink:href="#path-3"></use>
                </mask>
                <g id="Clip-10"></g>
                <polygon id="Fill-9" fill="#003856" mask="url(#mask-4)" points="26.8971586 0.0774068966 20.9170207 0.0774068966 7.70929655 11.0026483 9.99067586 0.0840275862 5.79977931 0.0840275862 0.11977931 27.2630621 4.31122759 27.2630621 6.60584828 16.2837517 15.2999172 27.2752 21.1570207 27.2752 10.4226759 13.7044414"></polygon>
            </g>
            <path d="M90.4423724,5.91348966 L92.8136828,16.8762483 L83.7979586,16.8762483 L90.4423724,5.91348966 Z M93.4636138,20.1777655 L95.0884414,28.2831448 L99.8100966,28.2831448 L93.6627862,1.10411034 L89.3240276,1.10411034 L72.5472,28.2831448 L77.0376828,28.2831448 L81.8564414,20.1777655 L93.4636138,20.1777655 Z" id="Fill-11" fill="#0098D8"></path>
            <polygon id="Fill-13" fill="#0098D8" points="83.3502345 34.5101793 77.6707862 61.6892138 81.8627862 61.6892138 87.5416828 34.5101793"></polygon>
            <polygon id="Fill-15" fill="#003856" points="4.42245517 43.3186207 8.72866207 43.3186207 8.13721379 46.1947586 4.23928276 46.1947586 4.00148966 47.3522759 7.89942069 47.3522759 7.15017931 50.9947586 2.84452414 50.9947586 2.60617931 52.1522759 12.4141793 52.1522759 12.6525241 50.9947586 13.0514207 49.0543448 11.898869 49.0543448 11.4999724 50.9947586 8.30769655 50.9947586 9.05638621 47.3522759 12.9537655 47.3522759 13.1921103 46.1947586 9.29417931 46.1947586 9.88562759 43.3186207 14.1918345 43.3186207 14.4296276 42.1611034 4.66024828 42.1611034"></polygon>
            <g transform="translate(0.000000, 39.085241)">
                <mask id="mask-6" fill="white">
                    <use xlink:href="#path-5"></use>
                </mask>
                <g id="Clip-18"></g>
                <path d="M15.7037241,2.21831724 L13.3131034,13.8470069 C13.2402759,14.2017655 12.8926897,14.4903172 12.5390345,14.4903172 L1.81241379,14.4903172 C1.65406897,14.4903172 1.51724138,14.4301793 1.42896552,14.3214897 C1.33682759,14.2089379 1.30482759,14.0561103 1.33903448,13.8905931 L3.72965517,2.26190345 C3.80248276,1.90714483 4.15006897,1.6185931 4.50372414,1.6185931 L15.2303448,1.6185931 C15.3892414,1.6185931 15.5249655,1.67817931 15.6137931,1.78742069 C15.705931,1.89997241 15.737931,2.05335172 15.7037241,2.21831724 M15.6628966,0.352937931 L4.54675862,0.352937931 C3.61213793,0.352937931 2.69903448,1.11045517 2.50648276,2.04507586 L2.4137931,2.49693793 L0.125241379,13.6285241 L0.035862069,14.0638345 C-0.156689655,14.9984552 0.445241379,15.7559724 1.37986207,15.7559724 L12.4965517,15.7559724 C13.4306207,15.7559724 14.3442759,14.9984552 14.5362759,14.0638345 L14.6256552,13.6285241 L16.9142069,2.49693793 L17.0074483,2.04507586 C17.1994483,1.11045517 16.5975172,0.352937931 15.6628966,0.352937931" id="Fill-17" fill="#003856" mask="url(#mask-6)"></path>
            </g>
            <polygon id="Fill-19" fill="#003856" points="29.4402207 39.2680276 28.2832552 39.2680276 27.9891862 40.6975448 21.8280828 40.6975448 21.5897379 41.8550621 35.0865655 41.8550621 35.3249103 40.6975448 29.1461517 40.6975448"></polygon>
            <path d="M21.9063172,48.5944828 C21.9681103,48.2937931 22.2621793,48.049931 22.562869,48.049931 L31.5499034,48.049931 C31.8500414,48.049931 32.0442483,48.2937931 31.9824552,48.5944828 L31.6425931,50.2457931 L21.5670069,50.2457931 L21.9063172,48.5944828 Z M31.0654897,53.054069 C31.0036966,53.3547586 30.7096276,53.5986207 30.4089379,53.5986207 L21.4219034,53.5986207 C21.1212138,53.5986207 20.9281103,53.3547586 20.9893517,53.054069 L21.3253517,51.4198621 L31.4009379,51.4198621 L31.0654897,53.054069 Z M31.8825931,46.8929655 L22.7057655,46.8929655 C21.8185931,46.8929655 20.950731,47.6124138 20.7681103,48.5001379 L20.7245241,48.7142069 L19.8566621,52.9348966 L19.8125241,53.1484138 C19.6304552,54.0361379 20.2020414,54.7555862 21.0897655,54.7555862 L30.2654897,54.7555862 C31.1532138,54.7555862 32.0210759,54.0361379 32.2036966,53.1484138 L32.2472828,52.9348966 L33.1151448,48.7142069 L33.1592828,48.5001379 C33.3419034,47.6124138 32.7697655,46.8929655 31.8825931,46.8929655 L31.8825931,46.8929655 Z" id="Fill-21" fill="#003856"></path>
            <path d="M52.3017931,46.0077793 L49.0124138,46.0077793 C48.774069,46.0077793 48.6206897,45.8146759 48.6697931,45.576331 L49.5348966,41.3672276 C49.5834483,41.1288828 49.8168276,40.9357793 50.0551724,40.9357793 L53.3445517,40.9357793 C53.5828966,40.9357793 53.7368276,41.1288828 53.6877241,41.3672276 L52.822069,45.576331 C52.7729655,45.8146759 52.5401379,46.0077793 52.3017931,46.0077793 M53.7114483,39.7782621 L53.3335172,39.7782621 L50.1644138,39.7782621 C49.3583448,39.7782621 48.569931,40.4326069 48.4044138,41.2386759 L48.326069,41.6166069 L47.5602759,45.3440552 L47.4857931,45.7048828 C47.3202759,46.5115034 47.8394483,47.1652966 48.646069,47.1652966 L51.8151724,47.1652966 L52.1925517,47.1652966 C52.9991724,47.1652966 53.7875862,46.5115034 53.9536552,45.7048828 L54.8711724,41.2386759 C55.0372414,40.4326069 54.518069,39.7782621 53.7114483,39.7782621" id="Fill-23" fill="#003856"></path>
            <path d="M39.7376552,50.7734069 L39.9473103,49.7521655 L39.9953103,49.5204414 C40.0444138,49.2815448 40.2772414,49.0884414 40.5155862,49.0884414 L50.6645517,49.0884414 C50.9023448,49.0884414 51.0562759,49.2815448 51.0071724,49.5204414 L50.9591724,49.7521655 L50.7495172,50.7734069 L39.7376552,50.7734069 Z M39.2350345,53.2180966 L39.2824828,52.9858207 L39.4998621,51.9309241 L50.5117241,51.9309241 L50.2943448,52.9858207 L50.2468966,53.2180966 C50.1977931,53.4564414 49.9649655,53.6495448 49.7266207,53.6495448 L39.5776552,53.6495448 C39.3393103,53.6495448 39.185931,53.4564414 39.2350345,53.2180966 L39.2350345,53.2180966 Z M51.0308966,47.9314759 L40.6253793,47.9314759 C39.8187586,47.9314759 39.0303448,48.585269 38.8642759,49.3918897 L38.7903448,49.7521655 L38.1255172,52.9858207 L38.0515862,53.3466483 C37.886069,54.153269 38.4052414,54.8070621 39.2118621,54.8070621 L49.6173793,54.8070621 C50.424,54.8070621 51.2118621,54.153269 51.377931,53.3466483 L51.4518621,52.9858207 L52.1166897,49.7521655 L52.1911724,49.3918897 C52.3572414,48.585269 51.8375172,47.9314759 51.0308966,47.9314759 L51.0308966,47.9314759 Z" id="Fill-25" fill="#003856"></path>
            <path d="M67.700469,45.48 C67.5470897,45.2874483 67.4985379,45.0546207 67.5542621,44.782069 L67.9950897,42.638069 L73.4941241,41.2251034 L73.4179862,40.1017931 L68.2433655,41.4292414 L68.6179862,39.608 L67.4610207,39.608 L66.3978483,44.782069 C66.2759172,45.3724138 66.3818483,45.8777931 66.7156414,46.2971034 C67.048331,46.7169655 67.5106759,46.9271724 68.1010207,46.9271724 L72.2704,46.9271724 L72.5087448,45.7696552 L68.3388138,45.7696552 C68.0662621,45.7696552 67.8532966,45.6731034 67.700469,45.48" id="Fill-27" fill="#003856"></path>
            <path d="M63.1819034,46.2628966 C63.4456276,46.2628966 63.6150069,46.4764138 63.5609379,46.7401379 L63.5223172,46.9271724 L63.2740414,48.1354483 L58.0663172,48.1354483 L58.3145931,46.9271724 L58.3532138,46.7401379 C58.4072828,46.4764138 58.6643862,46.2628966 58.9281103,46.2628966 L63.1819034,46.2628966 Z M57.3838345,51.454069 L57.8279724,49.2924138 L63.0356966,49.2924138 L62.5915586,51.454069 L57.3838345,51.454069 Z M63.9123862,45.1053793 L58.6737655,45.1053793 C58.0425931,45.1053793 57.4263172,45.6168276 57.2966621,46.2474483 L57.1570759,46.9271724 L55.5372138,54.8068966 L56.694731,54.8068966 L57.1460414,52.6115862 L62.3537655,52.6115862 L61.9024552,54.8068966 L63.0599724,54.8068966 L64.6798345,46.9271724 L64.8194207,46.2474483 C64.9496276,45.6168276 64.5430069,45.1053793 63.9123862,45.1053793 L63.9123862,45.1053793 Z" id="Fill-29" fill="#003856"></path>
            <path d="M66.3017931,50.8754759 L71.8008276,49.4625103 L71.7285517,48.3226483 L66.550069,49.6672 L67.0157241,47.4034759 L65.8582069,47.4034759 L64.7950345,52.5775448 C64.6736552,53.1673379 64.7795862,53.6721655 65.1133793,54.0925793 C65.446069,54.5118897 65.9078621,54.7220966 66.4982069,54.7220966 L70.6681379,54.7220966 L70.9064828,53.5645793 L66.736,53.5645793 C66.464,53.5645793 66.2510345,53.4680276 66.0982069,53.2754759 C65.9448276,53.0823724 65.8962759,52.8500966 65.952,52.5775448 L66.3017931,50.8754759 Z" id="Fill-31" fill="#003856"></path>
            <path d="M65.3901241,42.8404966 L65.2908138,41.1505655 L64.1128828,41.4462897 L64.1857103,42.703669 C64.1972966,42.9028414 64.0075034,43.0976 63.8017103,43.0976 L59.4419862,43.0976 L61.1297103,39.6084966 L60.0687448,39.3017379 L57.6891586,44.2545655 L64.0108138,44.2545655 C64.7495724,44.2545655 65.4320552,43.5549793 65.3901241,42.8404966" id="Fill-33" fill="#003856"></path>
            <polygon id="Fill-35" fill="#003856" points="32.3114483 42.4514759 31.1644138 42.4514759 30.6954483 44.7312 30.6148966 44.7312 24.8791724 44.7312 24.7191724 44.7312 25.1875862 42.4514759 24.0405517 42.4514759 23.5715862 44.7312 20.4543448 44.7312 20.216 45.8887172 34.7848276 45.8887172 35.0231724 44.7312 31.8424828 44.7312"></polygon>
            <path d="M38.3968552,46.4503724 L38.5474759,47.5394759 C40.5998897,46.8818207 42.1044414,45.9113379 43.0605793,44.629131 L45.7645793,47.3695448 L46.6920276,46.501131 L44.4989241,44.2545103 L47.0688552,44.2545103 L47.3066483,43.0975448 L43.8859586,43.0975448 C43.9803034,42.8592 44.0614069,42.5756138 44.1287172,42.2462345 L44.2793379,41.5146483 L47.4109241,41.5146483 L47.649269,40.357131 L41.3894069,40.357131 C41.2481655,40.357131 41.157131,40.2423724 41.1863724,40.1005793 L41.3601655,39.2542345 L40.1998897,39.2542345 L39.973131,40.357131 L39.9433379,40.5016828 C39.8285793,41.061131 40.1888552,41.5146483 40.7483034,41.5146483 L43.1218207,41.5146483 L42.9717517,42.2462345 C42.9182345,42.5077517 42.8310621,42.7913379 42.7113379,43.0975448 L39.2906483,43.0975448 L39.0523034,44.2545103 L41.9968552,44.2545103 C41.2156138,45.185269 40.0156138,45.9168552 38.3968552,46.4503724" id="Fill-37" fill="#003856"></path>
        </g>
    </g>
</svg>